<svg xmlns="http://www.w3.org/2000/svg" viewBox="0 0 77 94.94"><path d="M50,96.36a17.57,17.57,0,0,1-9.58-2.83l-9.32-6A42.85,42.85,0,0,1,11.5,51.4V8.7a3.8,3.8,0,0,1,2.38-3.57,3.92,3.92,0,0,1,1.51-.31,3.87,3.87,0,0,1,2.7,1.12L29.62,17.3a.87.87,0,0,0,.61.24.85.85,0,0,0,.59-.22L47.41,2.42a3.87,3.87,0,0,1,5.18,0l16.6,15a.83.83,0,0,0,.58.23.86.86,0,0,0,.61-.25L81.91,6a3.82,3.82,0,0,1,2.7-1.12,3.91,3.91,0,0,1,1.51.3A3.83,3.83,0,0,1,88.5,8.77V51.43A42.85,42.85,0,0,1,68.84,87.55l-9.26,6A17.53,17.53,0,0,1,50,96.36Zm1-3A14.62,14.62,0,0,0,58,91l9.27-6A39.85,39.85,0,0,0,85.5,51.43V8.77A.87.87,0,0,0,85,8a1.1,1.1,0,0,0-.36-.07.79.79,0,0,0-.59.25L72.48,19.5a3.86,3.86,0,0,1-5.3.11L51,5Z" transform="translate(-11.5 -1.43)" style="fill:#d4496c"/></svg>
