<svg xmlns="http://www.w3.org/2000/svg" viewBox="0 0 794.72 899"><path d="M753.42,395.3a30,30,0,1,0,21.59-56l-75.12-29,76.41-44.12a30,30,0,1,0-30-52l-76.41,44.12,12.47-79.56a30,30,0,0,0-59.28-9.29l-20,127.4L478.26,369l-7.35-12.73A38.56,38.56,0,0,0,437.51,337H428V195.84l100.34-81a30,30,0,1,0-37.68-46.68L428,118.73V30.5a30,30,0,0,0-60,0v88.23L305.34,68.16a30,30,0,1,0-37.68,46.68l100.34,81V337h-9.51a38.56,38.56,0,0,0-33.4,19.29l-4.81,8.33L190.63,289.76l-20-127.39a30,30,0,0,0-59.27,9.29l12.47,79.55L47.44,207.09a30,30,0,0,0-30,52l76.41,44.11-75.13,29a30,30,0,1,0,21.59,56l120.32-46.4,129.65,74.85-4.7,8.13a38.59,38.59,0,0,0,0,38.58L292.93,476l-130,75.08L42.58,504.7a30,30,0,0,0-21.6,56l75.13,29L19.7,633.77a30,30,0,1,0,30,52l76.41-44.12-12.47,79.56a30,30,0,1,0,59.28,9.29l20-127.4,130-75.08,2.16,3.73A38.56,38.56,0,0,0,358.49,551H368V704.16l-100.34,81a30,30,0,1,0,37.68,46.68L368,781.27V869.5a30,30,0,0,0,60,0V781.27l62.66,50.57a30,30,0,0,0,37.68-46.68L428,704.16V551h9.51a38.56,38.56,0,0,0,33.4-19.29l4.7-8.13,125.24,72.31,20,127.39a30,30,0,0,0,29.6,25.36,31,31,0,0,0,4.68-.36,30,30,0,0,0,25-34.29l-12.47-79.55L744,678.56a30,30,0,0,0,30-52l-76.41-44.11,75.13-29a30,30,0,1,0-21.59-56L630.85,543.93,505.61,471.62l4.81-8.33a38.59,38.59,0,0,0,0-38.58L508.26,421,633.11,348.9Z" transform="translate(0.49 -0.5)" style="fill:#76bfc4"/></svg>
